<svg width="800" height="800" viewBox="0 0 800 800" xmlns="http://www.w3.org/2000/svg">
  <g fill="#FF5C00">
    <path d="M174.8 272.6c-11.4 42.4-22.8 84.8-34.2 127.2-1 3.6-2 7.2-3 11.6 1.3-0.2 2.2-0.3 3-0.5 39.2-7.7 78.5-15.5 117.7-23.1 21.3-4.2 42.7-8.3 64-12.5 19.6-3.8 39.3-7.6 58.9-11.4 1.1-0.2 2.1-0.4 3.2-0.6 0-0.1 0.1-0.2 0.1-0.3-1.1-0.2-2.1-0.5-3.2-0.7-30.5-5.8-61-11.5-91.4-17.3-19.7-3.8-39.3-7.6-59-11.3-0.6-0.1-1.3-0.2-2-0.4 0.7-3 1.3-5.8 2-8.6 6.4-26.9 12.8-53.9 19.3-80.8 1.1-4.4 2.4-8.8 3.8-13.2 0.2-0.5 1.8-1.1 2.4-0.9 1.3 0.4 2.5 1.1 3.8 1.8 0.2 0.1 0.4 0.3 0.6 0.5-3.3 13.9-6.6 27.8-10 42.2 3.5 0.8 6.6 1.6 9.7 2.3 56.9 13.5 113.8 27 170.7 40.5 1 0.2 2 0.5 3.2 0.8-1.2 3.1-2.3 5.9-3.3 8.7-17.6 49.7-35.2 99.4-52.8 149.1-1.6 4.4-3.2 8.8-4.8 13.2-0.3 0.7-0.8 1.5-1.4 1.8-9.2 4.3-18.6 8.4-27.7 13-7.2 3.6-13.6 4.1-21.2 1.1-25.8-10.1-51.7-19.6-77.6-29.3-1.9-0.7-3.7-1.4-5.6-2.1 0 0.2 0 0.4 0 0.5 0.7 0.4 1.4 0.8 2.2 1.2 31.2 16.2 62.3 32.5 93.5 48.7 12.6 6.5 25.2 6.6 37.8 0.1 28.5-14.4 56.8-28.9 85.3-43.4 10-5.1 19.9-10.2 29.8-15.2 0.1-0.1 0.3-0.1 0.8-0.4-8.8-19.5-17.4-38.9-26.2-58.4 0.4-0.4 0.7-0.8 1-0.9 3.8-0.9 7.6-1.8 11.9-2.7 8.3 18.4 16.8 37 25.2 55.5 2-1 3.7-1.8 5.2-2.7 53.4-29.6 106.7-59.2 160-88.9 1.6-0.9 2.8-2.4 4.1-3.6 0-0.4 0-0.7-0.1-1.1-0.6 0.1-1.3 0.3-1.9 0.4-41.1 11.9-82.2 23.7-123.3 35.6-1.9 0.5-3.7 1-5.5 1.6-0.3 0.1-0.7 0.3-0.8 0.5-0.9 2-1.7 4.1-2.6 6.3 7-2.6 13.8-4 20.3-7.3 0.8-0.4 1.5-0.9 2.2-1.4 0 0.1 0.1 0.1 0.1 0.2-0.7 1.3-1.2 2.8-2.1 3.9-3.9 4.5-8.8 6-14.6 5.9-2.7-0.1-5.3-0.6-8-0.5-3.4 0.1-5.9-0.8-8.5-3.3-1.1-1.1-3.2-1.6-4.9-1.9-10.3-1.7-20.6-3.2-30.9-4.8 0 0.1 0 0.2 0 0.4 2.6 1.2 5.3 2.5 8.1 3.8-2.1 0.7-3.7 1.3-5.4 1.8-27.9 9.5-55.9 18.9-83.8 28.3-1.5 0.5-3 1.2-4.5 1.9-0.2-0.2-0.5-0.4-0.7-0.5 0.9-0.9 1.7-1.9 2.7-2.7 43.7-35.3 87.5-70.6 131.2-105.7 13.7-11 19.3-25.8 19.2-43.1 0-7.6-3.6-13.4-10-16.9-7.6-4.2-17.4-3.1-23.4 3.1-3.3 3.3-5.8 7.4-8.3 11.3-17.7 27.5-35.4 55-53 82.6-0.8 1.3-1.8 2.6-2.7 4-0.6-0.2-1.2-0.4-1.9-0.6 13.3-31.1 26.5-62.1 39.8-93.3-7.7 1.8-8.2 8.7-10.7 13.8-8.7 17.5-17.7 34.8-26.7 52.2-0.4 0.9-1.1 1.6-1.7 2.4-0.3-0.1-0.5-0.1-0.8-0.2 0.2-1.4 0.2-2.8 0.5-4.2 7.9-36.7 15.7-73.4 23.6-110.1 0.6-2.8 1.1-5.6 1.6-8.4-0.4-0.1-0.8-0.3-1.2-0.4-0.7 0.9-1.6 1.8-2.2 2.8-16.8 28.3-33.6 56.6-50.4 84.8-0.5 0.9-1 1.7-1.6 2.6-0.3 0.1-0.5 0.3-0.8 0.4-0.2-0.4-0.4-0.9-0.4-1.3-0.7-8.7-1.4-17.4-2-26.2-0.5-6.2-0.9-12.4-1.2-18.5-0.1-2.3-0.3-4.4-3-5.8-3.9-2-7.5-4.5-11.2-6.9-0.4-0.3-0.6-1-0.9-1.6 0.6-0.1 1.3-0.3 1.9-0.2 5.6 0.9 11.2 1.9 16.8 2.9 1.1 0.2 2.4 0.2 3.4-0.1 15.3-5.5 30.6-11 45.9-16.5 4.2-1.5 8.3-3 12.5-4.5 33.5 9.5 67.1 19 100.8 28.5 21.3 6 42.6 12 63.9 18 3.9 1.1 7.5 1.3 11.3 0.1 1.8-0.6 3.7-1.2 5.6-1.7 49.6-15.3 99.1-30.7 148.7-46 0.8-0.3 1.7-0.5 3.1-0.9-2.4-0.8-4.2-1.4-6-2-6.9-2-13.9-3.8-20.8-5.8C490.8 213.3 433.4 196 376 178.7c-22.3-6.2-44.6-12.4-66.9-18.3-6.9-1.8-14.3-0.4-21.7 0.2-3.1 0.3-3.8 2.1-4.4 4.5-10.7 40.3-21.5 80.5-32.1 120.8-3 11-6 22.1-9.2 33.8 0.4 0.2 0.8 0.4 1.2 0.6 0.6-0.7 1.1-1.5 1.7-2.1 11.2-10.7 23.5-18.6 38.8-20.5 12.1-1.5 21.6 2.7 29 12.1 10.9 13.6 13.2 35.2 0 47.8-21.2 20-60.9 8.9-70.8-20.4-0.9-2.6-1.6-5.3-2.4-8-0.2-0.6-0.3-1.1-0.7-2.3-8.3 31-16.6 61.4-24.8 91.8-0.3 0.9-0.5 1.9-0.9 3.7z"/>
    <path d="M626 463.4c5.2 1.5 10.2 3.6 15.4 5 21.5 6.1 40.7 16.4 56.5 31.8 41.7 40.3 55.8 89.5 44.6 145.3-11.2 55.4-43.9 95.6-94 121.6-31.9 16.5-66.2 23.3-102.1 20.5-77.9-6-140.6-66.6-154.4-148.5-6.8-40.1 0.7-78.7 21.6-114.1 21.6-36.6 53-61.3 94.2-73.4 26.7-7.8 53.7-7.4 81.1-3.6 6.6 0.9 11.8 5.3 16.9 9.3 8.3 6.6 14.9 14.7 20.3 23.5 0 0.8 0 1.2 0.2 1.2zm-1.5 88c-7.2-4.1-14.1-8-21.1-12-0.7-0.4-1.3-0.8-2-1.2-12.8-6.4-23.9-3.5-31.2 8.1-6.3 9.9-10.4 20.7-12.6 32-4.5 22.3-2.9 44.4 4.6 65.7 5.9 16.7 15.9 30.8 29.8 42.1 18.7 15.2 40.3 24.2 63.7 28.5 19.6 3.7 39.2 4 58.8 0.4 29.7-5.3 52-22 67.6-47.8 8.7-14.4 13.1-30.4 15.2-47.1 5.5-44.1-5.6-84.5-30.2-120.7-26.3-38.5-67.5-57-114-48-45.5 8.8-74.7 59.5-63.7 105.3 3.4 14.2 10.2 26.9 21.4 37.1 5.5-20.7 11.3-45.5 14.6-68zm-60.7-150.7c11.3-0.3 21.6 1.6 29.7 10.4-9.5-8.7-19.7-10.4-29.7-10.4zm119.8-5.5c0.3 0.1 0.5 0.3 0.8 0.4-1.1 2.1-2.1 4.2-3.3 6.2-10.3 17-20.7 33.9-31 50.9-1.4 2.4-2.8 3-5.6 2.4-33-6.2-64.4-3.4-94 12.1-30.6 16.1-50.6 42-61 74.8-11.9 37.5-10.1 74.6 6.3 110.7 0.7 1.5 1.4 3 2.1 4.5-3.2-0.9-10.7-7.3-14.1-12.2-16.9-23.8-23.6-50.6-21.6-79.3 3.4-48.5 24.8-87.8 63.4-117.4 30.9-23.7 66.2-35.2 105.4-33.4 13 0.6 25.9 2.6 38.8 3.9 2.3 0.2 5.3 0.4 6.5-1 4.9-5.8 9.3-11.9 13.9-18 1.6 1.7-2.9 2-5.2-0.9zm-165.4 114.3c-17.8 11.7-31 26.8-37.6 47.2-3.6 11.3-4.4 22.6-1.2 34.1 3.6 12.9 12.9 18.4 26.2 17.9 12.8-0.5 24.3-4.9 34.9-11.5 16.6-10.4 30.2-23.8 40.1-40.8 7.6-12.9 7.6-17.9-0.6-30.5-10.1-15.5-24.9-24.9-42.8-29.4-2.3-0.5-5.1-1.2-6.9-0.3-3.6 1.8-6.6 4.8-9.7 7.5-1.1 1.9-1.7 3.9-2.6 5.7z"/>
  </g>
</svg> 